<svg id="Component_10_1" data-name="Component 10 – 1" xmlns="http://www.w3.org/2000/svg" width="227.598" height="50.499" viewBox="0 0 227.598 50.499">
  <path id="Path_1" data-name="Path 1" d="M250.2,325.064a6.71,6.71,0,0,0,2.407.3h.151c.188.038.3.113.3.3v4.063a.277.277,0,0,1-.3.3h-.752c-5.529,0-9.591-2.971-12.187-8.876a13.18,13.18,0,0,1-.6-3.761v-.752c0-5.229,2.858-9.215,8.576-11.886a15.2,15.2,0,0,1,4.363-.752h26.33c5.943,0,10.155,3.273,12.638,9.78a19.932,19.932,0,0,1,.3,2.859v.9c0,4.778-2.52,8.538-7.523,11.284a11.319,11.319,0,0,1-5.266,1.2h-.752a.277.277,0,0,1-.3-.3v-4.063c.038-.188.113-.3.3-.3h.15c4.176,0,6.959-1.994,8.388-6.019H244.145C244.86,322.017,246.854,323.936,250.2,325.064Zm29.339-16.25a24.373,24.373,0,0,0-2.858-.151h-22.72c-4.739,0-7.861,1.618-9.328,4.815-.151.414-.3.827-.413,1.2h42.241C285.709,311.711,283.377,309.755,279.541,308.815Z" transform="translate(-239.218 -280.132)"/>
  <path id="Path_2" data-name="Path 2" d="M323.159,312.591a7.624,7.624,0,0,0-1.354,4.514c0,3.912,2.106,6.582,6.319,7.974a6.708,6.708,0,0,0,2.407.3h25.427c4.589,0,7.448-2.37,8.576-7.072a4.8,4.8,0,0,0,.151-1.354c0-3.31-1.693-5.83-5.116-7.523a5.526,5.526,0,0,0-1.994-.564v-4.814c4.927.376,8.576,3.235,11.022,8.538a12.35,12.35,0,0,1,.752,4.363v.452q0,7.673-8.125,11.736a12.367,12.367,0,0,1-4.513.9H329.929c-5.831,0-9.968-3.2-12.488-9.629a19.928,19.928,0,0,1-.3-2.859V316.5c0-4.965,2.708-8.84,8.125-11.585a16.917,16.917,0,0,1,2.859-.753v4.927A6.814,6.814,0,0,0,323.159,312.591Z" transform="translate(-261.775 -280.147)"/>
  <path id="Path_3" data-name="Path 3" d="M511.53,304.847q9.705,0,13.09,10.231a28.033,28.033,0,0,1,.3,2.858c0,5.266-2.708,9.253-8.125,12.037a12.371,12.371,0,0,1-4.514.9H485.2c-5.266,0-9.216-2.858-11.886-8.576a14.963,14.963,0,0,1-.752-4.363v-.151c0-5.529,3.009-9.667,9.027-12.337a18.267,18.267,0,0,1,4.363-.6ZM484,326.062a11.692,11.692,0,0,0,1.955.151H511.53c4.176,0,7-2.107,8.426-6.319a10.247,10.247,0,0,0,.151-1.655v-.9c0-3.31-1.956-5.755-5.868-7.372a6.933,6.933,0,0,0-1.805-.3H485.2q-5.473,0-7.674,6.319c-.113,1.2-.188,1.805-.3,1.805C477.227,321.887,479.483,324.632,484,326.062Z" transform="translate(-306.767 -280.377)"/>
  <g id="Group_1" data-name="Group 1" transform="translate(32.162 2.944)">
    <path id="Path_4" data-name="Path 4" d="M284.484,274.551h11.7l.97.925v4.654l-.97.925h-1.469l1.513,2.326h-2.292l-1.514-2.326h-5.981v2.326h-1.955Zm1.955,4.654h8.773v-2.79h-8.773Z" transform="translate(-284.484 -274.551)"/>
    <path id="Path_5" data-name="Path 5" d="M325.324,274.551v1.864H314.61v1.626h10.714v1.85H314.61v1.626h10.714v1.864H312.655v-8.83Z" transform="translate(-292.639 -274.551)"/>
    <path id="Path_6" data-name="Path 6" d="M340.827,282.456v-.939l8.73-5.1h-8.73v-1.864h11.7l.97.925v.939l-8.729,5.1H353.5v1.864H341.8Z" transform="translate(-300.794 -274.551)"/>
    <path id="Path_7" data-name="Path 7" d="M381.667,274.551v1.864H370.954v1.626h10.713v1.85H370.954v1.626h10.713v1.864H369v-8.83Z" transform="translate(-308.949 -274.551)"/>
    <path id="Path_8" data-name="Path 8" d="M399.125,274.551v5.13l7.274-5.13h3.278l-4.879,3.434,5,5.4h-2.6l-3.968-4.289-4.1,2.9v1.388H397.17v-8.83Z" transform="translate(-317.105 -274.551)"/>
    <path id="Path_9" data-name="Path 9" d="M425.281,283.381v-8.83h1.955v.042L436.009,281v-6.448h1.94v8.83h-1.94v-.042l-8.773-6.405v6.447Z" transform="translate(-325.242 -274.551)"/>
    <path id="Path_10" data-name="Path 10" d="M466.121,274.551v1.864H455.407v1.626h10.714v1.85H455.407v1.626h10.714v1.864H453.452v-8.83Z" transform="translate(-333.397 -274.551)"/>
    <path id="Path_11" data-name="Path 11" d="M482.594,274.551h11.7v1.864H483.579v1.626h9.744l.97.925v3.49l-.97.925h-11.7v-1.864h10.728v-1.626h-9.758l-.97-.925v-3.49Z" transform="translate(-341.552 -274.551)"/>
  </g>
  <rect id="Rectangle_2" data-name="Rectangle 2" width="7.332" height="1.243" transform="translate(55.144)"/>
  <g id="Group_2" data-name="Group 2" transform="translate(110.731 23.868)">
    <path id="Path_12" data-name="Path 12" d="M428.309,332.562V338a.277.277,0,0,0,.3.3h4.063a.277.277,0,0,0,.3-.3v-5.435Z" transform="translate(-404.687 -312.268)" fill="#bfe813"/>
    <path id="Path_13" data-name="Path 13" d="M446.519,313.027c-2.558-6.018-6.658-9.027-12.337-9.027H408a13.922,13.922,0,0,0-8.727,3.16c-2.821,3.122-4.213,5.642-4.213,7.523a.276.276,0,0,0,.3.3h4.213a14.26,14.26,0,0,0,1.353-2.407c1.279-2.6,4.288-3.912,9.028-3.912h8.727v13.115h4.664V308.664h9.028q6.206,0,8.576,3.612a13.413,13.413,0,0,0,1.5,2.708h4.213l.3-.15Z" transform="translate(-395.063 -304)"/>
  </g>
  <g id="Group_3" data-name="Group 3" transform="translate(216.94 16.57)">
    <path id="Path_14" data-name="Path 14" d="M548.537,301.549l-.012-2.558-.78,0,.016,3.2,3.026-.015,0-.643Z" transform="translate(-545.471 -295.252)"/>
    <path id="Path_15" data-name="Path 15" d="M554.2,298.957l-.984,2.323H553.2l-1.007-2.313-.9,0,1.487,3.194.869,0,1.456-3.208Z" transform="translate(-546.496 -295.241)"/>
    <path id="Path_16" data-name="Path 16" d="M549.847,293.728a5.329,5.329,0,1,0,5.355,5.3A5.335,5.335,0,0,0,549.847,293.728Zm.048,9.8a4.475,4.475,0,1,1,4.453-4.5A4.48,4.48,0,0,1,549.9,303.532Z" transform="translate(-544.545 -293.728)"/>
  </g>
</svg>
