<svg xmlns="http://www.w3.org/2000/svg" width="40.27" height="63.284" viewBox="0 0 40.27 63.284">
  <g id="Group_49" data-name="Group 49" transform="translate(-1425.804 -1174)">
    <path id="Path_119" data-name="Path 119" d="M194.012,77.312h-2.3c-.082-1.4-.017-4.481,1.931-6.15,2.7-2.319,2.319-10.074,2.021-16.306-.062-1.275-.119-2.455-.145-3.46a3.315,3.315,0,0,0-3.434-3.153,3.554,3.554,0,0,0-2.183.737,3.727,3.727,0,0,0-3.265-1.739,4,4,0,0,0-2.251.675,3.647,3.647,0,0,0-3.363-2.063,3.816,3.816,0,0,0-1.935.519l-.007-5.762a7.087,7.087,0,0,0,3.383-4.992h9.422l-1.726,1.394a.87.87,0,1,0,1.093,1.354l3.642-2.941a.455.455,0,0,0,.039-.051c.02-.022.039-.045.057-.069a.843.843,0,0,0,.155-.242.757.757,0,0,0,.071-.3.8.8,0,0,0-.07-.331.848.848,0,0,0-.184-.272l-.016-.022c-.016-.015-.022-.036-.038-.049l-3.43-2.9h0a.87.87,0,1,0-1.12,1.331l1.612,1.359H182.5a7.111,7.111,0,0,0-14.18.042h-9.387l1.726-1.4h0a.87.87,0,1,0-1.093-1.354l-3.645,2.943a.45.45,0,0,0-.039.051h0a.791.791,0,0,0-.054.07.82.82,0,0,0-.156.244.753.753,0,0,0-.071.3.782.782,0,0,0,.07.33c0,.015.019.025.026.038h0a.959.959,0,0,0,.158.235l.015.02c.016.015.022.036.038.049l3.431,2.89h0a.87.87,0,1,0,1.12-1.331l-1.612-1.355h9.516a7.079,7.079,0,0,0,3.389,4.955V54.38c0,2.494-.4,3.547-.642,3.777s-1.025,1-2.806-.052c-.786-.464-1.5-.942-2.174-1.386a9.361,9.361,0,0,0-4.715-2.119c-4.7,0-5.525,2.263-5.6,3.61-.122,2.319,1.877,2.42,2.951,2.477a2.864,2.864,0,0,1,1.536.323,21.473,21.473,0,0,1,1.78,2.138,32.035,32.035,0,0,0,5.585,6.015,37.328,37.328,0,0,1,5.7,5.073V77.3h-2.153a.869.869,0,0,0-.87.87V89.747a.87.87,0,0,0,.87.87h22.793a.869.869,0,0,0,.87-.87V78.182a.87.87,0,0,0-.87-.87ZM170,34.484a5.411,5.411,0,1,1,9.079,3.982V35.192a3.661,3.661,0,1,0-7.32.084v3.2A5.382,5.382,0,0,1,170,34.484Zm-1.3,33.277a30.824,30.824,0,0,1-5.236-5.675,21.166,21.166,0,0,0-1.989-2.361,4,4,0,0,0-2.609-.767c-1.337-.071-1.332-.145-1.3-.648.087-1.623,2.146-1.964,3.86-1.964h0a8.535,8.535,0,0,1,3.751,1.829c.692.46,1.435.954,2.251,1.435,2.534,1.5,4.157.519,4.9-.194.779-.751,1.173-2.444,1.173-5.029V35.275a2,2,0,0,1,1.924-2.058,1.971,1.971,0,0,1,1.921,1.994l.032,20.057a.87.87,0,1,0,1.74,0V49.292a1.939,1.939,0,0,1,3.841-.054l.032,6.328a.87.87,0,0,0,1.74,0V50.436c0-.787.88-1.449,1.922-1.449h0a1.754,1.754,0,0,1,1.919,1.413l.094,6.334a.87.87,0,0,0,1.74-.013V51.468a1.713,1.713,0,0,1,3.392-.035c.022,1.015.08,2.212.145,3.506.254,5.231.636,13.14-1.416,14.9-2.486,2.132-2.636,5.724-2.544,7.469h-14.86V74.091c0-1.521-6.349-6.285-6.413-6.331Zm24.449,21.116H172.089V79.049h21.053Z" transform="translate(1270.203 1146.667)"/>
    <path id="Path_120" data-name="Path 120" d="M414.137,454.76a1.676,1.676,0,1,1-1.675-1.675,1.676,1.676,0,0,1,1.675,1.675" transform="translate(1048.043 776.014)"/>
  </g>
</svg>
