<svg xmlns="http://www.w3.org/2000/svg" width="71.24" height="71.861" viewBox="0 0 71.24 71.861">
  <g id="Group_69" data-name="Group 69" transform="translate(155.49 242)">
    <path id="Path_147" data-name="Path 147" d="M140.42,289.013a31.375,31.375,0,0,1-21.959-9.065l8.674,1.563L105.489,257.6l-1.328,32.274,6.643-7.892a38.342,38.342,0,0,0,52.67,6.408l-4.22-5.549a31.78,31.78,0,0,1-18.833,6.173Z" transform="translate(-258.531 -467.184)" fill="none" stroke="#000" stroke-width="2"/>
    <path id="Path_148" data-name="Path 148" d="M226.27,46.546a38.342,38.342,0,0,0-52.67-6.408l4.22,5.549a30.828,30.828,0,0,1,18.833-6.252A31.375,31.375,0,0,1,218.611,48.5l-8.674-1.563,21.646,23.99,1.328-32.274Z" transform="translate(-318.281 -273.48)" fill="none" stroke="#000" stroke-width="2"/>
  </g>
</svg>
