<svg xmlns="http://www.w3.org/2000/svg" width="35.473" height="35.473" viewBox="0 0 35.473 35.473">
  <path id="Path_108" data-name="Path 108" d="M87.734,0a17.737,17.737,0,1,0,12.541,5.195A17.736,17.736,0,0,0,87.734,0Zm.22,26.792a.526.526,0,0,0,.5,0,4.746,4.746,0,0,0,.83-.77c.355-.422.667-.88,1.018-1.355l.493.3a10.375,10.375,0,0,1-2.526,3.107,3.92,3.92,0,0,1-1.979.826,2.012,2.012,0,0,1-2.369-2.621c.355-1.458.805-2.894,1.217-4.342s.826-2.951,1.245-4.42a3.724,3.724,0,0,0,.074-.44.869.869,0,0,0-.784-1.085,7.538,7.538,0,0,0-.773-.028,1.256,1.256,0,0,1,.039-.252l.05-.355,6.115-.979-.426,1.483-.1.355q-1.331,4.647-2.671,9.326a2.962,2.962,0,0,0-.174.759.66.66,0,0,0,.22.493ZM89.423,11a2.219,2.219,0,1,1,2.214-2.228A2.232,2.232,0,0,1,89.423,11Z" transform="translate(-69.998)"/>
</svg>
