<svg xmlns="http://www.w3.org/2000/svg" width="90" height="65.906" viewBox="0 0 90 65.906">
  <g id="Group_66" data-name="Group 66" transform="translate(-380.727 42)">
    <path id="Path_130" data-name="Path 130" d="M353.577,311.84a9.08,9.08,0,0,0-1.562.185,11.889,11.889,0,0,0-3.7,1.2,5.373,5.373,0,0,0-2.49,3.127,1.821,1.821,0,0,0,.012,1.411c.146.248.2.316.619.23l7.819-1.663c.732-.159.84-.642.953-1.218a5.656,5.656,0,0,0-.32-2.419,1.2,1.2,0,0,0-1.326-.856Zm-.018-2.047a3.533,3.533,0,0,1,2.265.722,3.188,3.188,0,0,1,1.044,1.612,8.752,8.752,0,0,1,.384,3.2,3.7,3.7,0,0,1-.655,1.831,3.186,3.186,0,0,1-1.893,1.174L346.872,320a2.647,2.647,0,0,1-2.813-1.212,3.689,3.689,0,0,1-.169-3.1,7.7,7.7,0,0,1,3.387-4.229,13.508,13.508,0,0,1,4.347-1.437h.005a11.194,11.194,0,0,1,1.929-.225Z" transform="translate(80.986 -313.658)" fill-rule="evenodd"/>
    <path id="Path_131" data-name="Path 131" d="M134.1,311.84a9,9,0,0,1,1.555.185,11.922,11.922,0,0,1,3.71,1.2,5.393,5.393,0,0,1,2.49,3.127,1.823,1.823,0,0,1-.016,1.411c-.147.248-.2.316-.615.23l-7.825-1.663c-.727-.159-.84-.642-.947-1.218a5.521,5.521,0,0,1,.315-2.419,1.2,1.2,0,0,1,1.332-.856Zm.011-2.047a3.533,3.533,0,0,0-2.265.722,3.181,3.181,0,0,0-1.038,1.612,8.551,8.551,0,0,0-.384,3.2,3.641,3.641,0,0,0,.655,1.831,3.156,3.156,0,0,0,1.893,1.174L140.8,320a2.651,2.651,0,0,0,2.813-1.212,3.712,3.712,0,0,0,.164-3.1,7.673,7.673,0,0,0-3.387-4.229,13.508,13.508,0,0,0-4.347-1.437h-.005a11.069,11.069,0,0,0-1.93-.225Z" transform="translate(257.132 -313.658)" fill-rule="evenodd"/>
    <path id="Path_132" data-name="Path 132" d="M182.48,178.609a66.455,66.455,0,0,1,12.154.823,2.559,2.559,0,0,1,1.612,1.511,48.6,48.6,0,0,1,3.512,9.173c-4.077.438-11.219,1.161-17.279,1.161s-13.208-.722-17.279-1.161a49.042,49.042,0,0,1,3.512-9.173,2.57,2.57,0,0,1,1.606-1.511,60.352,60.352,0,0,1,12.161-.823ZM169.9,177.426a4.6,4.6,0,0,0-2.987,2.547,53.643,53.643,0,0,0-4.138,10.791,1.016,1.016,0,0,0,.867,1.29c3.8.429,12.144,1.263,18.841,1.263s15.036-.84,18.834-1.263a1.022,1.022,0,0,0,.873-1.29c-1.094-3.788-2.136-7.5-4.144-10.791a4.764,4.764,0,0,0-3.016-2.554,64.325,64.325,0,0,0-12.638-.863,61.36,61.36,0,0,0-12.492.87Z" transform="translate(230.419 -203.598)" fill-rule="evenodd"/>
    <path id="Path_133" data-name="Path 133" d="M142.552,196.763h6.7v3.653c0,.61-.36.913-.666.913h-5.373c-.311,0-.659-.3-.659-.913Zm-44.818,0h6.7v3.653c0,.61-.36.913-.671.913H98.4c-.311,0-.666-.3-.666-.913Zm25.759-46.471a99.923,99.923,0,0,1,11.94.417c3.85.463,5.446,2.217,6.8,5.435,1.551,3.681,3.022,7.79,4.619,11.646a1.233,1.233,0,0,0,1.139.762l4.04-.012c.982,0,1.134.434,1.179,1.088.118,1.606-.514,2.887-2.4,3.984a1.232,1.232,0,0,0-.48,1.619l.58,1.172a11.464,11.464,0,0,1,1.218,4.465v9.99a5.574,5.574,0,0,1-.659,2.541c-.389.683-.778.908-.987.908H96.507c-.209,0-.6-.225-.993-.908a5.554,5.554,0,0,1-.654-2.541v-9.99a11.5,11.5,0,0,1,1.23-4.489l.568-1.148a1.243,1.243,0,0,0-.48-1.619,4.094,4.094,0,0,1-2.408-3.984c.029-.964.525-1.088,1.185-1.088l4.04.012a1.229,1.229,0,0,0,1.134-.762c1.594-3.856,3.077-7.965,4.628-11.646,1.352-3.218,2.937-4.971,6.793-5.435a99.7,99.7,0,0,1,11.941-.418Zm0-2.452a100.771,100.771,0,0,0-12.239.434c-4.606.553-7.216,3.259-8.756,6.906-1.488,3.529-2.881,7.339-4.335,10.91H94.957a3.712,3.712,0,0,0-2.662.958,3.577,3.577,0,0,0-.975,2.582,6.889,6.889,0,0,0,2.774,5.253,15.554,15.554,0,0,0-1.685,5.988v9.99c.107,2.469.84,4.047,2.875,5.061v4.494a3.261,3.261,0,0,0,3.118,3.365h5.367a3.266,3.266,0,0,0,3.122-3.365v-3.651H140.1v3.653a3.257,3.257,0,0,0,3.112,3.365h5.373a3.262,3.262,0,0,0,3.118-3.365v-4.494c2.12-.918,2.857-2.953,2.881-5.061v-9.99a13.432,13.432,0,0,0-1.685-5.988,6.884,6.884,0,0,0,2.768-5.253,3.572,3.572,0,0,0-.97-2.582,3.727,3.727,0,0,0-2.667-.958h-3.213c-1.449-3.569-2.836-7.381-4.324-10.91-1.54-3.646-4.161-6.353-8.766-6.906a100.416,100.416,0,0,0-12.235-.436Z" transform="translate(289.407 -179.876)"/>
    <path id="Path_134" data-name="Path 134" d="M230.839,362.191h9.979a1.474,1.474,0,1,1,0,2.948h-9.979a1.474,1.474,0,1,1,0-2.948Zm0-2.047a3.521,3.521,0,1,0,0,7.042h9.979a3.521,3.521,0,1,0,0-7.042Z" transform="translate(177.068 -355.25)" fill-rule="evenodd"/>
    <path id="Path_135" data-name="Path 135" d="M512.893,234.639c.688-.044.811.254,1.031.654a4.437,4.437,0,0,1,.276,2.07.881.881,0,0,1-.732.953l-6.866,1.459c-.316.068-.294.035-.395-.139a1.459,1.459,0,0,1,0-1.127,4.585,4.585,0,0,1,2.126-2.679,12.213,12.213,0,0,1,4.56-1.191Zm-.023-2.047a9.723,9.723,0,0,0-1.714.2,12.077,12.077,0,0,0-3.856,1.273,6.819,6.819,0,0,0-3.022,3.761,3.394,3.394,0,0,0,.159,2.83,2.464,2.464,0,0,0,2.6,1.116l6.861-1.449a2.891,2.891,0,0,0,1.736-1.082,3.328,3.328,0,0,0,.6-1.668,7.4,7.4,0,0,0-.343-2.848,2.9,2.9,0,0,0-.947-1.477,3.2,3.2,0,0,0-2.069-.653Z" transform="translate(-51.524 -249.887)" fill-rule="evenodd"/>
    <path id="Path_136" data-name="Path 136" d="M379.492,115.891a53.949,53.949,0,0,0-11.061.754,4.166,4.166,0,0,0-2.7,2.3,1.024,1.024,0,1,0,1.8.97,2.123,2.123,0,0,1,1.325-1.263,52.836,52.836,0,0,1,10.638-.722,58.021,58.021,0,0,1,10.638.726,2.143,2.143,0,0,1,1.32,1.259,42.132,42.132,0,0,1,3,7.853c-3.6.384-9.719,1.009-14.962,1.009-1.629,0-3.383-.062-5.13-.152a1.025,1.025,0,0,0-.107,2.047c1.78.09,3.563.152,5.238.152,5.88,0,13.187-.732,16.522-1.1a1.021,1.021,0,0,0,.869-1.3c-.958-3.321-1.85-6.59-3.637-9.47a4.273,4.273,0,0,0-2.74-2.3,56.151,56.151,0,0,0-11.014-.756Z" transform="translate(62.878 -153.485)" fill-rule="evenodd"/>
    <path id="Path_137" data-name="Path 137" d="M373.785,133.728h5.569v3.049c0,.463-.254.637-.434.637h-4.7c-.186,0-.433-.181-.433-.637ZM356.923,90.574a88.868,88.868,0,0,0-10.745.372c-4.082.489-6.438,2.932-7.8,6.156a1.228,1.228,0,1,0,2.261.947c1.178-2.789,2.5-4.268,5.835-4.668a88.041,88.041,0,0,1,10.446-.355,88.092,88.092,0,0,1,10.452.355c3.333.4,4.657,1.878,5.835,4.668,1.36,3.22,2.649,6.822,4.053,10.2a1.22,1.22,0,0,0,1.133.761h3.546c.485,0,.648.113.722.181s.164.209.164.62a3.477,3.477,0,0,1-2.035,3.359,1.228,1.228,0,0,0-.48,1.606l.5,1.009a9.969,9.969,0,0,1,1.065,3.867v8.75a4.8,4.8,0,0,1-.559,2.147c-.326.568-.631.722-.737.722H361.657a1.227,1.227,0,1,0,0,2.452h9.674v3.049a3.011,3.011,0,0,0,2.887,3.1h4.7a3.014,3.014,0,0,0,2.887-3.1v-3.883a2.56,2.56,0,0,0,1.646-1.116,6.931,6.931,0,0,0,.879-3.372v-8.75a11.778,11.778,0,0,0-1.3-4.9c-.005-.012-.012-.022-.017-.035l-.294-.6c1.358-1.269,2.559-2.694,2.559-4.3a3.273,3.273,0,0,0-.9-2.368,3.438,3.438,0,0,0-2.446-.884h-2.718c-1.256-3.1-2.463-6.4-3.754-9.46-1.36-3.224-3.716-5.666-7.8-6.156a88.6,88.6,0,0,0-10.75-.372Z" transform="translate(85.443 -132.571)"/>
  </g>
</svg>
