<svg xmlns="http://www.w3.org/2000/svg" width="100.709" height="79.895" viewBox="0 0 100.709 79.895">
  <g id="Group_67" data-name="Group 67" transform="translate(-194.464 100)">
    <path id="Path_138" data-name="Path 138" d="M326.689,102.872,319.1,97.423a4.45,4.45,0,0,0-4.868-.222L293.3,81.627a2.566,2.566,0,0,0-1.329-.48L276.75,80.094a5.669,5.669,0,0,0-4.648,2.058l-4.395,5.5A4.719,4.719,0,0,0,266.7,90.5l-.018,1.145a9.039,9.039,0,1,0,8.494,15.53,6.122,6.122,0,0,0,.884.384l5.177,1.407,9.425,2.991,4.986,1.158a15.324,15.324,0,0,0,2.346.358l4.513.116a4.419,4.419,0,0,0,1.776,4.478l7.588,5.448a4.481,4.481,0,0,0,6.254-1.027l9.592-13.358a4.489,4.489,0,0,0-1.025-6.255Zm-62.186,2.22a6.816,6.816,0,0,1,3.5-11.5,6.808,6.808,0,0,1,6.132,1.868,6.762,6.762,0,0,1,.614.714c-.209-.034-.413-.084-.627-.1l-1.09-.212a6.169,6.169,0,0,0-1.994-.07l-.155.021A6.308,6.308,0,0,0,267.6,97.3l-.617.54a1.106,1.106,0,0,0-.329.506l-.14.45a2.4,2.4,0,0,0-.068,1.028,3.078,3.078,0,0,0,.816,1.618l.395.4a2.5,2.5,0,0,0,.5.389l.819.5a2.7,2.7,0,0,0,.546.252l1.4.468a2.7,2.7,0,0,1,1.042.639l.766.731c.025.031.048.059.068.08l.545.7c.026.034.057.062.083.1a6.8,6.8,0,0,1-8.921-.608Zm13.29-7.954a8.621,8.621,0,0,0-3.5-4.4l.042-.151,2.474-2.281,4.86,1.076a.661.661,0,0,1,.262.122l2.36,1.745a1.675,1.675,0,0,1,.674,1.244l.23,4.013-2.428-.064a6.475,6.475,0,0,1-1.69-.263L278.76,97.5c-.212-.07-.423-.14-.632-.225Zm18.355,13.792-4.9-1.135-9.385-2.981-5.149-1.4a3.288,3.288,0,0,1-.96-.518c-.109-.091-.226-.187-.328-.29a2.751,2.751,0,0,1-.3-.348l-.6-.774c-.016-.02-.037-.046-.059-.069a1.064,1.064,0,0,0-.127-.144l-.823-.787a4.923,4.923,0,0,0-1.894-1.156l-1.474-.5-.9-.56-.4-.4a1.13,1.13,0,0,1-.186-.315c0-.023,0-.109-.005-.13l.034-.108.374-.329a4.074,4.074,0,0,1,2.121-.963l.144-.02a3.963,3.963,0,0,1,1.268.048l1.149.225c.041.008.08.013.119.017a6.76,6.76,0,0,1,1.976.469l1.439.586c.25.1.507.189.846.3l2.318.677a8.624,8.624,0,0,0,2.271.351l2.629.068a2.02,2.02,0,0,0,1.515-.632,2.082,2.082,0,0,0,.573-1.551l-.24-4.207a3.917,3.917,0,0,0-1.579-2.911l-2.354-1.74a2.881,2.881,0,0,0-1.119-.513l-4.826-1.068a2.291,2.291,0,0,0-2.078.553l-2.425,2.261a2.279,2.279,0,0,0-.532.789,9.1,9.1,0,0,0-3.363-.49l.011-.717a2.434,2.434,0,0,1,.529-1.484l4.373-5.474a3.423,3.423,0,0,1,2.79-1.239l15.211,1.053a.291.291,0,0,1,.144.051L312.61,98.779l-9.054,12.609-.084-.011a.855.855,0,0,0-.126-.011l-5.244-.132a13.377,13.377,0,0,1-1.954-.305Zm29.749-3.11L316.3,121.178a2.3,2.3,0,0,1-3.128.514l-7.588-5.448a2.242,2.242,0,0,1-.514-3.13l9.592-13.358a2.242,2.242,0,0,1,3.13-.514l7.588,5.448a2.248,2.248,0,0,1,.512,3.13Z" transform="translate(-33.38 -180.088)"/>
    <path id="Path_139" data-name="Path 139" d="M155.539,266.462l-2.9,3.093.144-.993a1.062,1.062,0,0,0-.013-.244c0-.01.008-.018.01-.028.536-2.584-2.723-5.291-7.579-6.3a16.453,16.453,0,0,0-3.329-.354,11.226,11.226,0,0,0-2.674.307,4.058,4.058,0,0,0-.289-.406c-1.492-1.726-5.285-1.945-9.253-.526-.193.074-.362.137-.59.219a12.667,12.667,0,0,0-5.073,3.424,3.76,3.76,0,0,0-.957,3.65,6.034,6.034,0,0,0,.281.632H122.7a7.017,7.017,0,0,0-4.869,1.948l-5.67,5.423a5.746,5.746,0,0,0-6.332,1.145l-6.109,5.98a5.76,5.76,0,0,0-.088,8.126l10.5,10.73a5.757,5.757,0,0,0,8.123.087l6.109-5.98a5.757,5.757,0,0,0,1.284-6.3l.481-.359a7.969,7.969,0,0,1,4.777-1.577h10.8a11.847,11.847,0,0,0,7.436-2.627l6.007-4.861a4.712,4.712,0,0,0,.687-.556l.007-.005s0,0,0,0c.036-.036.075-.064.109-.1l8.482-9.043a3.379,3.379,0,0,0,.91-2.31,3.431,3.431,0,0,0-1.064-2.465,6.2,6.2,0,0,0-8.741.278ZM144.453,271.6l-5.764,0-.056-.036a13.388,13.388,0,0,1-1.236-.847,6.807,6.807,0,0,1,.122-1.826l.069-.336a13.609,13.609,0,0,0,5.729,2.5,16.444,16.444,0,0,0,3.328.354,10.153,10.153,0,0,0,3.548-.572l-.24,1.665a2.7,2.7,0,0,1-1.859,1.008,4.441,4.441,0,0,0-3.643-1.908Zm-9.356,0-1.109-.782c.4-.142.777-.308,1.154-.475a3.419,3.419,0,0,0,.18,1.257Zm9.649-7.42c3.8.789,6.037,2.723,5.843,3.655-.137.655-1.649,1.332-3.943,1.332a14.222,14.222,0,0,1-2.872-.308c-3.8-.79-6.038-2.723-5.845-3.655.137-.655,1.649-1.332,3.942-1.332A14.058,14.058,0,0,1,144.746,264.182Zm-19.033,4.22s-.266-.052-.572-.857c-.118-.343.1-.887.58-1.468a10.548,10.548,0,0,1,4.132-2.752c.2-.07.395-.144.584-.216,3.249-1.164,5.835-.88,6.617-.244a3.107,3.107,0,0,0-1.314,1.887,2.816,2.816,0,0,0,.044,1.287c0,.01-.009.017-.011.027l-.047.224c-.109.513-.2.977-.276,1.4a14.145,14.145,0,0,1-2.276,1.05,14.831,14.831,0,0,1-1.931.539,7.019,7.019,0,0,0-2.152-.343h-2.445a1.108,1.108,0,0,0-.934-.535Zm-2.915,26.39-6.109,5.98a3.605,3.605,0,0,1-4.958-.052l-10.5-10.73a3.519,3.519,0,0,1,.053-4.958l6.109-5.98a3.517,3.517,0,0,1,4.957.052l10.5,10.73a3.521,3.521,0,0,1-.053,4.958Zm40-25.363-8.428,8.984-6.641,5.375a9.6,9.6,0,0,1-6.028,2.127h-10.8a10.193,10.193,0,0,0-6.112,2.02l-.387.289-10.381-10.606,5.349-5.115a4.788,4.788,0,0,1,3.322-1.329h6.392a4.825,4.825,0,0,1,2.772.884l2.238,1.577c.033.023.07.027.1.046a1.05,1.05,0,0,0,.423.136.981.981,0,0,0,.118.023h3.6c.01,0,.02,0,.031,0h.015c.008,0,.015,0,.023,0l6.046,0a2.211,2.211,0,0,1,0,4.422l-11.156,0a1.119,1.119,0,0,0,0,2.239h11.153a4.454,4.454,0,0,0,4.448-4.449,4.085,4.085,0,0,0-.044-.429,4.892,4.892,0,0,0,2.869-1.723,1.113,1.113,0,0,0,.387-.694l.028-.2.624-.376a1.152,1.152,0,0,0,.1-.093,1.243,1.243,0,0,0,.14-.1l4.163-4.444a3.958,3.958,0,0,1,5.572-.189,1.158,1.158,0,0,1,.365.841,1.124,1.124,0,0,1-.305.782Z" transform="translate(96.469 -324.111)"/>
    <path id="Path_140" data-name="Path 140" d="M200.841,414.477a2.309,2.309,0,1,1-2.308-2.308,2.308,2.308,0,0,1,2.308,2.308" transform="translate(17.868 -445.812)"/>
  </g>
</svg>
