<svg id="Group_26" data-name="Group 26" xmlns="http://www.w3.org/2000/svg" width="15.759" height="22.206" viewBox="0 0 15.759 22.206">
  <path id="Path_102" data-name="Path 102" d="M235.753,191.963h2.865a3.94,3.94,0,0,0,3.94-3.94V184.8h-2.149v3.223a1.791,1.791,0,0,1-1.791,1.791h-2.865V184.8H233.6v5.014h-4.656V184.8H226.8v12.177h2.149v-5.014H233.6v5.014h2.149Z" transform="translate(-226.799 -179.786)"/>
  <path id="Path_103" data-name="Path 103" d="M228.951,421.073A1.074,1.074,0,1,1,227.877,420a1.074,1.074,0,0,1,1.074,1.075" transform="translate(-226.802 -399.942)"/>
  <path id="Path_104" data-name="Path 104" d="M335.347,421.073A1.075,1.075,0,1,1,334.272,420a1.075,1.075,0,0,1,1.075,1.075" transform="translate(-326.393 -399.942)"/>
  <path id="Path_105" data-name="Path 105" d="M228.951,107.474a1.074,1.074,0,1,1-1.074-1.075,1.074,1.074,0,0,1,1.074,1.075" transform="translate(-226.802 -106.399)"/>
  <path id="Path_106" data-name="Path 106" d="M335.347,107.474a1.075,1.075,0,1,1-1.075-1.075,1.075,1.075,0,0,1,1.075,1.075" transform="translate(-326.393 -106.399)"/>
  <path id="Path_107" data-name="Path 107" d="M441.751,107.474a1.074,1.074,0,1,1-1.075-1.075,1.074,1.074,0,0,1,1.075,1.075" transform="translate(-425.992 -106.399)"/>
</svg>
