<svg xmlns="http://www.w3.org/2000/svg" width="45.3" height="50.839" viewBox="0 0 45.3 50.839">
  <g id="Group_21" data-name="Group 21" transform="translate(-176.43 -212.85)">
    <path id="Path_79" data-name="Path 79" d="M356.381,31.836a.834.834,0,0,1-.469-.144c-.246-.167-6.046-4.151-7.006-7.987a3.99,3.99,0,0,1,1.917-4.549,4.917,4.917,0,0,1,5.558.727,4.918,4.918,0,0,1,5.556-.727,3.989,3.989,0,0,1,1.917,4.549c-.959,3.833-6.76,7.818-7.007,7.987a.832.832,0,0,1-.467.144Zm-3.388-11.575a2.74,2.74,0,0,0-1.348.345,2.333,2.333,0,0,0-1.122,2.694c.609,2.438,4.083,5.387,5.858,6.682,1.774-1.3,5.25-4.25,5.858-6.682a2.333,2.333,0,0,0-1.122-2.694c-.978-.553-2.578-.583-4.147.986a.834.834,0,0,1-1.179,0,3.991,3.991,0,0,0-2.8-1.331Z" transform="translate(-149.801 195.036)" stroke="#000" stroke-width="0.3"/>
    <path id="Path_80" data-name="Path 80" d="M190.067,25.711H190c-.3-.022-7.312-.571-10.061-3.417h0a3.99,3.99,0,0,1-.613-4.9,4.917,4.917,0,0,1,5.176-2.149,4.917,4.917,0,0,1,4.449-3.407h.037a3.989,3.989,0,0,1,3.9,2.981c1.083,3.8-1.945,10.151-2.075,10.417a.833.833,0,0,1-.75.474ZM183.5,16.834a3.055,3.055,0,0,0-2.737,1.408,2.333,2.333,0,0,0,.375,2.894c1.75,1.807,6.23,2.624,8.417,2.858.888-2.01,2.423-6.3,1.733-8.716a2.333,2.333,0,0,0-2.3-1.772h-.02c-1.122.01-2.524.783-3.1,2.927a.834.834,0,0,1-1.021.589,5.208,5.208,0,0,0-1.35-.189Z" transform="translate(4.013 201.161)" stroke="#000" stroke-width="0.3"/>
    <path id="Path_81" data-name="Path 81" d="M475.833,385a3.333,3.333,0,1,0,2.357.976A3.334,3.334,0,0,0,475.833,385Zm0,5a1.666,1.666,0,1,1,1.179-.488A1.667,1.667,0,0,1,475.833,390Z" transform="translate(-261.753 -136.461)" stroke="#000" stroke-width="0.3"/>
    <path id="Path_82" data-name="Path 82" d="M160.833,385a3.333,3.333,0,1,0,2.357.976A3.334,3.334,0,0,0,160.833,385Zm0,5a1.666,1.666,0,1,1,1.179-.488A1.667,1.667,0,0,1,160.833,390Z" transform="translate(23.247 -136.461)" stroke="#000" stroke-width="0.3"/>
    <path id="Path_83" data-name="Path 83" d="M260.833,367.5H249.167A4.171,4.171,0,0,0,245,371.667V375a.833.833,0,0,0,.833.833h18.333A.833.833,0,0,0,265,375v-3.333a4.171,4.171,0,0,0-4.167-4.167Zm-11.667,1.667h11.667a2.5,2.5,0,0,1,2.347,1.667H246.82a2.5,2.5,0,0,1,2.347-1.667Zm-2.5,5V372.5h16.667v1.667Z" transform="translate(-55.92 -120.627)" stroke="#000" stroke-width="0.3"/>
    <path id="Path_84" data-name="Path 84" d="M157.084,185h-2.5a2.47,2.47,0,0,0-.867.167A10.834,10.834,0,0,0,142.918,175H129.584a10.834,10.834,0,0,0-10.8,10.167,2.47,2.47,0,0,0-.867-.167h-2.5a1.672,1.672,0,0,0-1.667,1.667v1.667A1.672,1.672,0,0,0,115.418,190h1.966a7.467,7.467,0,0,0-2.8,5.833V202.5a2.509,2.509,0,0,0,1.667,2.35v2.65a2.507,2.507,0,0,0,2.5,2.5h5a2.507,2.507,0,0,0,2.5-2.5V205h20v2.5a2.507,2.507,0,0,0,2.5,2.5h5a2.507,2.507,0,0,0,2.5-2.5v-2.65a2.509,2.509,0,0,0,1.667-2.35v-6.667a7.467,7.467,0,0,0-2.8-5.833h1.966a1.672,1.672,0,0,0,1.667-1.667v-1.667A1.672,1.672,0,0,0,157.085,185Zm-36.667.833a9.172,9.172,0,0,1,9.167-9.167h13.333a9.172,9.172,0,0,1,9.167,9.167v2.692a7.308,7.308,0,0,0-1.667-.192H122.084a7.308,7.308,0,0,0-1.667.192Zm-5,2.5v-1.667h2.5a.833.833,0,0,1,.833.833v.833Zm9.167,19.167a.833.833,0,0,1-.833.833h-5a.833.833,0,0,1-.833-.833V205h6.667Zm30,0a.833.833,0,0,1-.833.833h-5a.833.833,0,0,1-.833-.833V205h6.667Zm1.667-11.667V202.5a.833.833,0,0,1-.833.833H117.084a.833.833,0,0,1-.833-.833v-6.667A5.84,5.84,0,0,1,122.084,190h28.333a5.84,5.84,0,0,1,5.833,5.833Zm.833-7.5h-3.333V187.5a.833.833,0,0,1,.833-.833h2.5Z" transform="translate(62.829 53.539)" stroke="#000" stroke-width="0.3"/>
    <path id="Path_85" data-name="Path 85" d="M219.584,215.1a.833.833,0,0,0,.589-.244l3.333-3.333a.834.834,0,0,0-1.179-1.179l-3.333,3.333a.833.833,0,0,0,.589,1.423Z" transform="translate(-32.171 21.776)" stroke="#000" stroke-width="0.3"/>
    <path id="Path_86" data-name="Path 86" d="M227.743,218.189a.834.834,0,0,0,1.179,0l6.667-6.667a.834.834,0,0,0-1.179-1.179l-6.667,6.667a.834.834,0,0,0,0,1.179Z" transform="translate(-40.086 21.773)" stroke="#000" stroke-width="0.3"/>
  </g>
</svg>
