<svg id="Group_12" data-name="Group 12" xmlns="http://www.w3.org/2000/svg" width="45" height="45.765" viewBox="0 0 45 45.765">
  <path id="Path_76" data-name="Path 76" d="M198.777,399a1.032,1.032,0,1,0,1.032,1.032A1.178,1.178,0,0,0,198.777,399Z" transform="translate(-195.046 -361.35)"/>
  <path id="Path_77" data-name="Path 77" d="M212.791,292.838a5.9,5.9,0,0,0-7.465-3.462l-5.085,1.731a5.41,5.41,0,0,0-5.193-1.3l-5.842,1.515a4.3,4.3,0,0,1-3.462-.541,11.064,11.064,0,0,0-5.842-1.623H178.17v-1.623a1.432,1.432,0,0,0-1.406-1.406h-7.357A1.432,1.432,0,0,0,168,287.536v19.258a1.432,1.432,0,0,0,1.406,1.406h7.357a1.432,1.432,0,0,0,1.406-1.406v-3.029H179.9a7.694,7.694,0,0,1,3.462.757l1.407.649a11.765,11.765,0,0,0,4.219.866,10.119,10.119,0,0,0,4.652-1.082c5.3-2.6,14.5-7.032,17.852-8.655a2.627,2.627,0,0,0,1.3-3.462ZM175.357,305.5H170.7V288.943h4.652Zm34.838-11.468c-3.354,1.623-12.55,6.059-17.852,8.655a7.816,7.816,0,0,1-6.6.108l-1.407-.649a11.073,11.073,0,0,0-4.544-.974h-1.731v-9.3h1.731a9.4,9.4,0,0,1,4.436,1.19,7.045,7.045,0,0,0,5.518.757l5.842-1.515a3.061,3.061,0,0,1,3.462,1.731l-9.521,3.787a1.355,1.355,0,0,0-.757,1.731,1.406,1.406,0,0,0,1.3.866.975.975,0,0,0,.541-.108l10.711-4.328h.433V293.92l-.433-.866,4.544-1.515a3.3,3.3,0,0,1,4.111,1.839v.108c.325.433.325.433.216.541Z" transform="translate(-168 -262.436)"/>
  <path id="Path_78" data-name="Path 78" d="M190.519,111.491h3.57a5.2,5.2,0,0,0,4.869,3.787,5,5,0,0,0,4.869-3.787h7.032a5.2,5.2,0,0,0,4.869,3.787,5,5,0,0,0,4.869-3.787h5.626a1.432,1.432,0,0,0,1.406-1.406v-6.059a1.285,1.285,0,0,0-1.082-1.3l-7.9-1.731-2.6-5.734a1.33,1.33,0,0,0-1.19-.757H200.69a1.406,1.406,0,0,0-1.3.866l-2.488,5.951h-6.491a1.432,1.432,0,0,0-1.406,1.406v7.465a1.62,1.62,0,0,0,1.515,1.3Zm8.439.974a2.38,2.38,0,1,1,2.38-2.38A2.27,2.27,0,0,1,198.958,112.465Zm16.878,0a2.38,2.38,0,1,1,2.38-2.38A2.4,2.4,0,0,1,215.836,112.465Zm-24.018-8.439h5.951a1.406,1.406,0,0,0,1.3-.866l2.488-5.951h12.334l2.6,5.518a1.376,1.376,0,0,0,.974.757l7.465,1.623v3.678H220.7A5.2,5.2,0,0,0,215.836,105a5,5,0,0,0-4.869,3.787h-7.032A5.2,5.2,0,0,0,199.066,105a5,5,0,0,0-4.869,3.787h-2.272v-4.76Z" transform="translate(-187.099 -94.505)"/>
</svg>
