<svg xmlns="http://www.w3.org/2000/svg" width="53.893" height="46.023" viewBox="0 0 53.893 46.023">
  <g id="Group_38" data-name="Group 38" transform="translate(-305.917 -938)">
    <path id="Path_109" data-name="Path 109" d="M133.639,459.475a2.209,2.209,0,0,0,2.224,2.224h1.968a2.209,2.209,0,0,0,2.224-2.224v-2.994h-6.416Z" transform="translate(177.411 522.324)"/>
    <path id="Path_110" data-name="Path 110" d="M113.267,115.322l-2.224,10.693h-3.251a3.834,3.834,0,0,0-3.85,3.85v7.357h18.649v-3.165H120.88a1.03,1.03,0,0,1-.855-.6l-2.4-7.443h-4.876l2.224-10.351a1.373,1.373,0,0,1,1.369-1.112h6.245V112.84h-6.245a3.053,3.053,0,0,0-3.079,2.481Zm2.4,17.365a3.55,3.55,0,0,1-7.1,0,3.55,3.55,0,1,1,7.1,0Z" transform="translate(204.114 831.318)"/>
    <path id="Path_111" data-name="Path 111" d="M259.57,249.929H260.6v-6.416h-3.08Z" transform="translate(66.023 713.82)"/>
    <path id="Path_112" data-name="Path 112" d="M166.73,292.914a1.826,1.826,0,0,0,1.882,1.8,1.807,1.807,0,0,0,1.8-1.8,1.883,1.883,0,0,0-1.8-1.882A1.958,1.958,0,0,0,166.73,292.914Z" transform="translate(147.656 671.092)"/>
    <path id="Path_113" data-name="Path 113" d="M83.671,372.664a3.388,3.388,0,0,0,2.4,5.731h17.365v-6.758H86.065a4.057,4.057,0,0,0-2.395,1.026Zm3.678,1.54h14.628v1.711H87.349Z" transform="translate(223.187 598.614)"/>
    <path id="Path_114" data-name="Path 114" d="M386.491,56.632h13.6a.808.808,0,0,0,.855-.855V52.612a.808.808,0,0,0-.855-.855h-13.6a.808.808,0,0,0-.855.855v3.165A.92.92,0,0,0,386.491,56.632Z" transform="translate(-49.179 886.244)"/>
    <path id="Path_115" data-name="Path 115" d="M355.09,153.57h2.31v2.31h-2.31Z" transform="translate(-21.713 794.695)"/>
    <path id="Path_116" data-name="Path 116" d="M355.09,336h2.31v2.31h-2.31Z" transform="translate(-21.713 630.658)"/>
    <path id="Path_117" data-name="Path 117" d="M355.09,244.36h2.31v2.31h-2.31Z" transform="translate(-21.713 713.058)"/>
    <path id="Path_118" data-name="Path 118" d="M334.036,67.031H330.1v2.4a2.573,2.573,0,0,1-2.566,2.566H314.019a2.52,2.52,0,0,1-2.566-2.566v-2.4h-3.935a2.466,2.466,0,0,0-2.481,2.4v39.607a2.411,2.411,0,0,0,2.481,2.4h26.519a2.466,2.466,0,0,0,2.481-2.4V69.512a2.483,2.483,0,0,0-2.481-2.481ZM318.552,77.638H325.4v1.711h-6.844Zm0,9.239H325.4v1.711h-6.844Zm0,9.153H325.4v1.711h-6.844ZM308.372,74.9a.808.808,0,0,1,.855-.855h4.021a.808.808,0,0,1,.855.855v4.021a.808.808,0,0,1-.855.855h-4.021a.808.808,0,0,1-.855-.855Zm0,9.153a.808.808,0,0,1,.855-.855h4.021a.808.808,0,0,1,.855.855v4.021a.808.808,0,0,1-.855.855h-4.021a.808.808,0,0,1-.855-.855Zm0,13.26V93.293a.808.808,0,0,1,.855-.855h4.021a.808.808,0,0,1,.855.855v4.021a.808.808,0,0,1-.855.855h-4.021A.92.92,0,0,1,308.372,97.314Zm23.952,10.693h-23.1V106.3h23.1Zm0-5.3h-23.1v-1.711h23.1Zm0-8.212H318.551V92.78h13.773Zm0-9.153H318.551V83.627h13.773Zm0-9.153H318.551V74.474h13.773Z" transform="translate(23.294 872.509)"/>
  </g>
</svg>
