<svg xmlns="http://www.w3.org/2000/svg" width="18.923" height="11.678" viewBox="0 0 18.923 11.678">
  <path id="Path_101" data-name="Path 101" d="M87.665,112.25a9.439,9.439,0,0,0-6.692,2.772l1.82,1.82a6.89,6.89,0,0,1,9.744,0l1.82-1.82a9.443,9.443,0,0,0-6.691-2.772Zm4.872,4.592h0a6.877,6.877,0,0,1,2.015,4.679.17.17,0,0,0,.17.165h2.234a.171.171,0,0,0,.17-.175,9.448,9.448,0,0,0-2.769-6.489Zm-11.564-1.82A9.439,9.439,0,0,0,78.2,121.51a.171.171,0,0,0,.17.175h2.234a.17.17,0,0,0,.17-.164,6.873,6.873,0,0,1,2.015-4.679ZM91.6,117.231a.245.245,0,0,0-.069.011l-4.472,1.382a2.712,2.712,0,1,0,3.392,3.392l1.382-4.472a.241.241,0,0,0-.233-.312Zm-3.775,2.855a1.164,1.164,0,1,1-.823.341,1.161,1.161,0,0,1,.823-.341Z" transform="translate(-78.204 -112.25)"/>
</svg>
