<svg xmlns="http://www.w3.org/2000/svg" width="17.023" height="17.024" viewBox="0 0 17.023 17.024">
  <g id="Group_25" data-name="Group 25" transform="translate(0 0)">
    <path id="Path_98" data-name="Path 98" d="M81.2,174.625a1.105,1.105,0,0,0,1.1,1.1H97.088a1.1,1.1,0,0,0,1.1-1.1v-11.1H81.2Zm6.277-9.256a2.639,2.639,0,0,1,2.234,1.277,2.562,2.562,0,0,1,2.234-1.277,2.729,2.729,0,0,1,2.589,2.731c0,1.419-1.561,4.291-4.823,5.391-3.263-1.1-4.823-3.972-4.823-5.391a2.729,2.729,0,0,1,2.589-2.731Z" transform="translate(-81.199 -158.701)"/>
    <path id="Path_99" data-name="Path 99" d="M97.123,12.689h-1.1V11.2h-.745v1.49H93.045V11.2H92.3v1.49H90.065V11.2h-.709v1.49H87.122V11.2h-.745v1.49H84.143V11.2h-.709v1.49H82.3a1.105,1.105,0,0,0-1.1,1.1v1.49H98.222v-1.49a1.105,1.105,0,0,0-1.1-1.1Z" transform="translate(-81.199 -11.199)"/>
  </g>
</svg>
