<svg xmlns="http://www.w3.org/2000/svg" width="24.449" height="18.199" viewBox="0 0 24.449 18.199">
  <path id="Path_100" data-name="Path 100" d="M97.777,84.768a.63.63,0,0,0-.63.63v9.35a.63.63,0,0,0,1.26,0V90.64h1.931v4.108a.234.234,0,0,0,.234.234h6.077l2.225,2.717a.233.233,0,0,0,.181.086H116a.233.233,0,0,0,.234-.233V94.109h1.877v2.017a.234.234,0,0,0,.234.233h1.936a.233.233,0,0,0,.218-.15c2.426-6.334.081-10.237-.02-10.4a.232.232,0,0,0-.2-.111h-1.936a.233.233,0,0,0-.234.233V87.74h-1.877V85.394a.234.234,0,0,0-.234-.233h-3.2V83.417a.234.234,0,0,0-.234-.234h-2.9V81.453h2.384a.933.933,0,1,0,0-1.867h-8.56a.933.933,0,0,0,0,1.867h2.48v1.731h-2.48a.234.234,0,0,0-.233.234v1.743h-2.687a.233.233,0,0,0-.234.233V89.38H98.407V85.4a.63.63,0,0,0-.63-.63Zm9.455-3.315h1.176v1.731h-1.176Z" transform="translate(-97.147 -79.586)"/>
</svg>
