<svg xmlns="http://www.w3.org/2000/svg" width="55.29" height="58.858" viewBox="0 0 55.29 58.858">
  <g id="Group_22" data-name="Group 22" transform="translate(-118.156 -174)">
    <path id="Path_87" data-name="Path 87" d="M532.458,140.347a.9.9,0,0,1-.82-.544l-2.675-6.243a.891.891,0,0,1-.071-.348V104.676a3.567,3.567,0,0,1,7.134,0v28.537a.9.9,0,0,1-.071.348l-2.675,6.243a.9.9,0,0,1-.82.543Zm-1.783-7.321,1.783,4.164,1.784-4.164V104.676a1.784,1.784,0,1,0-3.567,0Z" transform="translate(-362.578 81.808)"/>
    <path id="Path_88" data-name="Path 88" d="M207.653,123.5H173.8a2.691,2.691,0,0,1-2.694-2.693V80.695a.892.892,0,1,1,1.783,0v40.112a.914.914,0,0,0,.91.91h33.853a.914.914,0,0,0,.91-.91V72.686a.914.914,0,0,0-.91-.91H182.7v7.116a2.691,2.691,0,0,1-2.693,2.693h-3.549a.892.892,0,0,1,0-1.783h3.549a.914.914,0,0,0,.91-.91V70.885a.894.894,0,0,1,.892-.892h25.844a2.691,2.691,0,0,1,2.693,2.693v48.121a2.691,2.691,0,0,1-2.693,2.694Z" transform="translate(-45.818 109.357)"/>
    <path id="Path_89" data-name="Path 89" d="M120.484,123.511h-8.9a2.691,2.691,0,0,1-2.693-2.693V72.7A2.691,2.691,0,0,1,111.584,70H128.51a.892.892,0,0,1,0,1.783H111.584a.914.914,0,0,0-.91.91v48.121a.913.913,0,0,0,.91.91h8.9a.892.892,0,0,1,0,1.784Z" transform="translate(9.265 109.347)"/>
    <path id="Path_90" data-name="Path 90" d="M171.984,81.646a.915.915,0,0,1-.633-.258.887.887,0,0,1,0-1.257l9.81-9.81a.889.889,0,0,1,1.257,1.257l-9.81,9.81a.877.877,0,0,1-.624.258Z" transform="translate(-45.802 109.297)"/>
    <path id="Path_91" data-name="Path 91" d="M392.458,40.28a3.566,3.566,0,0,1-3.567-3.567V34.93a.892.892,0,1,1,1.783,0v1.784a1.784,1.784,0,0,0,3.567,0V26.9a1.784,1.784,0,0,0-3.567,0v2.675a.892.892,0,1,1-1.783,0V26.9a3.567,3.567,0,1,1,7.134,0v9.81A3.566,3.566,0,0,1,392.458,40.28Z" transform="translate(-238.631 150.663)"/>
    <path id="Path_92" data-name="Path 92" d="M227.439,213.568a6.951,6.951,0,0,1-3.077-.99,3.655,3.655,0,0,0-4.548,0,5.276,5.276,0,0,1-6.153,0,3.655,3.655,0,0,0-4.548,0,5.277,5.277,0,0,1-6.153,0,3.654,3.654,0,0,0-4.548,0,6.954,6.954,0,0,1-3.077.99.892.892,0,1,1,0-1.783,5.7,5.7,0,0,0,2.274-.794,5.277,5.277,0,0,1,6.153,0,3.654,3.654,0,0,0,4.548,0,5.277,5.277,0,0,1,6.153,0,3.655,3.655,0,0,0,4.548,0,5.276,5.276,0,0,1,6.153,0,5.709,5.709,0,0,0,2.274.794.892.892,0,0,1,0,1.783Z" transform="translate(-66.477 -14.598)"/>
    <path id="Path_93" data-name="Path 93" d="M227.439,268.008a6.951,6.951,0,0,1-3.077-.99,3.655,3.655,0,0,0-4.548,0,5.276,5.276,0,0,1-6.153,0,3.655,3.655,0,0,0-4.548,0,5.277,5.277,0,0,1-6.153,0,3.654,3.654,0,0,0-4.548,0,6.954,6.954,0,0,1-3.077.99.892.892,0,1,1,0-1.783,5.7,5.7,0,0,0,2.274-.794,5.277,5.277,0,0,1,6.153,0,3.654,3.654,0,0,0,4.548,0,5.277,5.277,0,0,1,6.153,0,3.655,3.655,0,0,0,4.548,0,5.276,5.276,0,0,1,6.153,0,5.709,5.709,0,0,0,2.274.794.892.892,0,0,1,0,1.783Z" transform="translate(-66.477 -62.796)"/>
    <path id="Path_94" data-name="Path 94" d="M227.439,322.458a6.95,6.95,0,0,1-3.077-.99,3.655,3.655,0,0,0-4.548,0,5.276,5.276,0,0,1-6.153,0,3.655,3.655,0,0,0-4.548,0,5.277,5.277,0,0,1-6.153,0,3.654,3.654,0,0,0-4.548,0,6.953,6.953,0,0,1-3.077.99.892.892,0,0,1,0-1.783,5.7,5.7,0,0,0,2.274-.794,5.277,5.277,0,0,1,6.153,0,3.654,3.654,0,0,0,4.548,0,5.277,5.277,0,0,1,6.153,0,3.655,3.655,0,0,0,4.548,0,5.276,5.276,0,0,1,6.153,0,5.709,5.709,0,0,0,2.274.794.892.892,0,0,1,0,1.783Z" transform="translate(-66.477 -111.003)"/>
    <path id="Path_95" data-name="Path 95" d="M335.837,439.124a6.951,6.951,0,0,1-3.077-.99,3.654,3.654,0,0,0-4.548,0,5.276,5.276,0,0,1-6.153,0,5.708,5.708,0,0,0-2.274-.794.892.892,0,0,1,0-1.783,6.95,6.95,0,0,1,3.077.99,3.654,3.654,0,0,0,4.548,0,5.277,5.277,0,0,1,6.153,0,5.706,5.706,0,0,0,2.274.794.892.892,0,0,1,0,1.784Z" transform="translate(-176.658 -214.292)"/>
    <path id="Path_96" data-name="Path 96" d="M335.837,408.008a6.95,6.95,0,0,1-3.077-.99,3.655,3.655,0,0,0-4.548,0,5.277,5.277,0,0,1-6.153,0,5.707,5.707,0,0,0-2.274-.794.892.892,0,0,1,0-1.783,6.95,6.95,0,0,1,3.077.99,3.654,3.654,0,0,0,4.548,0,5.277,5.277,0,0,1,6.153,0,5.706,5.706,0,0,0,2.274.794.892.892,0,1,1,0,1.783Z" transform="translate(-176.658 -186.744)"/>
    <path id="Path_97" data-name="Path 97" d="M534.233,151.429h-4.459a.892.892,0,0,1,0-1.783h4.459a.892.892,0,0,1,0,1.783Z" transform="translate(-362.57 38.837)"/>
  </g>
</svg>
