<svg xmlns="http://www.w3.org/2000/svg" width="59.364" height="72.4" viewBox="0 0 59.364 72.4">
  <g id="Group_68" data-name="Group 68" transform="translate(-306.431 12)">
    <path id="Path_141" data-name="Path 141" d="M317.028,182.753a16.429,16.429,0,0,0,3.09-2.009,1.644,1.644,0,0,0,.541-1.159v-4.1a2.336,2.336,0,0,0-.7-1.932c-.077-.077-.077-.155-.155-.155a5.138,5.138,0,0,0,.927-.464,1.459,1.459,0,0,0,.85-1.391v-5.486a.7.7,0,0,0-.077-.386,2.538,2.538,0,0,0-.541-1,1.594,1.594,0,0,0,.773-1.313v-5.872c.309-2.936-2.627-4.868-2.936-5.1a1.557,1.557,0,0,0-.85-.232H307.138c3.322-5.022,1.623-12.517,1.545-12.827a.284.284,0,0,0-.077-.232c-1.7-4.559-5.022-5.254-6.8-5.254a6.461,6.461,0,0,0-2.627.464,1.51,1.51,0,0,0-.927,1.545c.155,1.932-2.009,7.109-3.4,9.89a.075.075,0,0,1-.077.077c-2.859,6.722-10.895,9.736-10.973,9.736a1.511,1.511,0,0,0-1,1.468v24.8a1.305,1.305,0,0,0,.232.773c2.473,4.25,14.681,7.109,17.154,7.572h11.667c2.086-.386,4.327-3.322,4.945-4.172a1.891,1.891,0,0,0,.309-.927v-2.319Zm-1.7-2.627a1.58,1.58,0,0,0-1.391,1.545v2.936a9.584,9.584,0,0,1-2.627,2.55H300.648c-5.254-1.159-12.9-3.632-14.758-5.8V158.1c2.473-1.082,8.886-4.482,11.667-10.972.464-.927,3.245-6.49,3.709-10.2h.618c1.777,0,3.09,1,3.863,3.168.464,2.009,1,7.65-1.545,10.817a.4.4,0,0,0-.155.309,3.043,3.043,0,0,0,.309,3.555,1.526,1.526,0,0,0,1.082.464h12.054c.541.464,1.314,1.313,1.236,1.932V162.2a31.856,31.856,0,0,0-3.477,1.082,1.609,1.609,0,0,0-.927,1.7,1.56,1.56,0,0,0,1.468,1.236,10.825,10.825,0,0,1,2.782.464v3.941a13.369,13.369,0,0,1-3.013,1.159,1.486,1.486,0,0,0-1.545,1.468,1.6,1.6,0,0,0,1.391,1.623,6.055,6.055,0,0,1,2.241.618v3.4a14.32,14.32,0,0,1-2.318,1.237Z" transform="translate(44.031 -129.77)"/>
    <path id="Path_142" data-name="Path 142" d="M153.274,319.77V294.426a1.55,1.55,0,0,0-1.545-1.545H136.507a1.55,1.55,0,0,0-1.545,1.545V319.77a1.55,1.55,0,0,0,1.545,1.545h15.222a1.5,1.5,0,0,0,1.545-1.545Zm-3.09-1.546H138.052V295.971h12.131Z" transform="translate(171.469 -266.865)"/>
    <path id="Path_143" data-name="Path 143" d="M174.083,372.805a4.4,4.4,0,0,0,0-8.809,4.4,4.4,0,0,0,0,8.809Zm0-5.64a1.3,1.3,0,0,1,1.313,1.314,1.313,1.313,0,1,1-1.313-1.314Z" transform="translate(141.543 -328.167)"/>
    <path id="Path_144" data-name="Path 144" d="M404.88,18.905v8.113a1.545,1.545,0,1,0,3.09,0V18.905a1.546,1.546,0,0,0-3.091,0Z" transform="translate(-61.206 -29.36)"/>
    <path id="Path_145" data-name="Path 145" d="M281.264,86.48a1.614,1.614,0,0,0,1.236-.618,1.6,1.6,0,0,0-.386-2.164l-6.645-4.713a1.554,1.554,0,0,0-1.777,2.55l6.645,4.713a2.06,2.06,0,0,0,.927.232Z" transform="translate(52.442 -82.253)"/>
    <path id="Path_146" data-name="Path 146" d="M495.376,78.746l-6.645,4.713a1.584,1.584,0,0,0-.386,2.164,1.613,1.613,0,0,0,1.237.618,1.484,1.484,0,0,0,.927-.309l6.645-4.713a1.524,1.524,0,1,0-1.777-2.473Z" transform="translate(-132.926 -82.014)"/>
  </g>
</svg>
